<?xml version="1.0" ?><svg style="enable-background:new 0 0 36 36;" version="1.1" viewBox="0 0 36 36" xml:space="preserve" xmlns="http://www.w3.org/2000/svg" xmlns:xlink="http://www.w3.org/1999/xlink"><style type="text/css">
	.st0{fill:#222A30;}
	.st1{fill:none;stroke:#222A30;stroke-width:2.0101;stroke-linejoin:round;stroke-miterlimit:10;}
	.st2{fill:#171715;}
	.st3{fill-rule:evenodd;clip-rule:evenodd;fill:#222A30;}
</style><g id="Layer_1"/><g id="icons"><g id="backspace_2_"><path d="M26.2,23.1l-0.7,0.7c-0.3,0.3-0.8,0.3-1.1,0l-4-4l-4,4c-0.3,0.3-0.8,0.3-1.1,0l-0.7-0.7c-0.3-0.3-0.3-0.8,0-1.1l4-4l-4-4    c-0.3-0.3-0.3-0.8,0-1.1l0.7-0.7c0.3-0.3,0.8-0.3,1.1,0l4,4l4-4c0.3-0.3,0.8-0.3,1.1,0l0.7,0.7c0.3,0.3,0.3,0.8,0,1.1l-4,4l4,4    C26.5,22.3,26.5,22.8,26.2,23.1z"/><path class="st1" d="M30.5,6.7H11.6c-0.9,0-1.5,0.4-2,1.1l-6.5,9.8c-0.2,0.3-0.2,0.6,0,0.8l6.5,9.8c0.5,0.6,1.1,1.1,2,1.1h18.8    c1.4,0,2.5-1.1,2.5-2.5V9.2C33,7.8,31.9,6.7,30.5,6.7z"/></g></g></svg>